<svg viewBox="0 0 330 200" xmlns="http://www.w3.org/2000/svg"><g><g><g><g><g><line x1="40" y1="177" x2="35" y2="177" style="visibility: inherit;" fill="rgb(0, 0, 0)" stroke="rgb(204, 204, 204)" stroke-width="1px"></line><line x1="40" y1="151.71428571428572" x2="35" y2="151.71428571428572" style="visibility: inherit;" fill="rgb(0, 0, 0)" stroke="rgb(204, 204, 204)" stroke-width="1px"></line><line x1="40" y1="126.42857142857143" x2="35" y2="126.42857142857143" style="visibility: inherit;" fill="rgb(0, 0, 0)" stroke="rgb(204, 204, 204)" stroke-width="1px"></line><line x1="40" y1="101.14285714285714" x2="35" y2="101.14285714285714" style="visibility: inherit;" fill="rgb(0, 0, 0)" stroke="rgb(204, 204, 204)" stroke-width="1px"></line><line x1="40" y1="75.85714285714286" x2="35" y2="75.85714285714286" style="visibility: inherit;" fill="rgb(0, 0, 0)" stroke="rgb(204, 204, 204)" stroke-width="1px"></line><line x1="40" y1="50.57142857142857" x2="35" y2="50.57142857142857" style="visibility: inherit;" fill="rgb(0, 0, 0)" stroke="rgb(204, 204, 204)" stroke-width="1px"></line><line x1="40" y1="25.285714285714295" x2="35" y2="25.285714285714295" style="visibility: inherit;" fill="rgb(0, 0, 0)" stroke="rgb(204, 204, 204)" stroke-width="1px"></line><line x1="40" y1="0" x2="35" y2="0" style="visibility: inherit;" fill="rgb(0, 0, 0)" stroke="rgb(204, 204, 204)" stroke-width="1px"></line></g><g transform="translate(30, 0)"><text x="0" y="177" dx="0em" dy="0.3em" style="text-anchor: end; visibility: hidden; font-family: Roboto, sans-serif; font-size: 12px; font-weight: 200;" fill="rgb(33, 33, 33)" stroke="none" stroke-width="1px">1.5</text><text x="0" y="151.71428571428572" dx="0em" dy="0.3em" style="text-anchor: end; visibility: inherit; font-family: Roboto, sans-serif; font-size: 12px; font-weight: 200;" fill="rgb(33, 33, 33)" stroke="none" stroke-width="1px">2</text><text x="0" y="126.42857142857143" dx="0em" dy="0.3em" style="text-anchor: end; visibility: inherit; font-family: Roboto, sans-serif; font-size: 12px; font-weight: 200;" fill="rgb(33, 33, 33)" stroke="none" stroke-width="1px">2.5</text><text x="0" y="101.14285714285714" dx="0em" dy="0.3em" style="text-anchor: end; visibility: inherit; font-family: Roboto, sans-serif; font-size: 12px; font-weight: 200;" fill="rgb(33, 33, 33)" stroke="none" stroke-width="1px">3</text><text x="0" y="75.85714285714286" dx="0em" dy="0.3em" style="text-anchor: end; visibility: inherit; font-family: Roboto, sans-serif; font-size: 12px; font-weight: 200;" fill="rgb(33, 33, 33)" stroke="none" stroke-width="1px">3.5</text><text x="0" y="50.57142857142857" dx="0em" dy="0.3em" style="text-anchor: end; visibility: inherit; font-family: Roboto, sans-serif; font-size: 12px; font-weight: 200;" fill="rgb(33, 33, 33)" stroke="none" stroke-width="1px">4</text><text x="0" y="25.285714285714295" dx="0em" dy="0.3em" style="text-anchor: end; visibility: inherit; font-family: Roboto, sans-serif; font-size: 12px; font-weight: 200;" fill="rgb(33, 33, 33)" stroke="none" stroke-width="1px">4.5</text><text x="0" y="0" dx="0em" dy="0.3em" style="text-anchor: end; visibility: hidden; font-family: Roboto, sans-serif; font-size: 12px; font-weight: 200;" fill="rgb(33, 33, 33)" stroke="none" stroke-width="1px">5</text></g><line x1="40" y1="0" x2="40" y2="177" fill="rgb(0, 0, 0)" stroke="rgb(204, 204, 204)" stroke-width="1px"></line></g></g><g transform="translate(40, 0)" clip-path="url(#clip_0)"><clipPath id="clip_0"><rect width="290" height="177"></rect></clipPath><g><g><g><line x1="0" y1="0" x2="0" y2="177" fill="rgb(0, 0, 0)" stroke="rgb(66, 66, 66)" stroke-width="1px" opacity="0.25"></line><line x1="24.166666666666664" y1="0" x2="24.166666666666664" y2="177" fill="rgb(0, 0, 0)" stroke="rgb(66, 66, 66)" stroke-width="1px" opacity="0.25"></line><line x1="48.33333333333333" y1="0" x2="48.33333333333333" y2="177" fill="rgb(0, 0, 0)" stroke="rgb(66, 66, 66)" stroke-width="1px" opacity="0.25"></line><line x1="72.5" y1="0" x2="72.5" y2="177" fill="rgb(0, 0, 0)" stroke="rgb(66, 66, 66)" stroke-width="1px" opacity="0.25"></line><line x1="96.66666666666666" y1="0" x2="96.66666666666666" y2="177" fill="rgb(0, 0, 0)" stroke="rgb(66, 66, 66)" stroke-width="1px" opacity="0.25"></line><line x1="120.83333333333334" y1="0" x2="120.83333333333334" y2="177" fill="rgb(0, 0, 0)" stroke="rgb(66, 66, 66)" stroke-width="1px" opacity="0.25"></line><line x1="145" y1="0" x2="145" y2="177" fill="rgb(0, 0, 0)" stroke="rgb(66, 66, 66)" stroke-width="1px" opacity="0.25"></line><line x1="169.16666666666669" y1="0" x2="169.16666666666669" y2="177" fill="rgb(0, 0, 0)" stroke="rgb(66, 66, 66)" stroke-width="1px" opacity="0.25"></line><line x1="193.33333333333331" y1="0" x2="193.33333333333331" y2="177" fill="rgb(0, 0, 0)" stroke="rgb(66, 66, 66)" stroke-width="1px" opacity="0.25"></line><line x1="217.5" y1="0" x2="217.5" y2="177" fill="rgb(0, 0, 0)" stroke="rgb(66, 66, 66)" stroke-width="1px" opacity="0.25"></line><line x1="241.66666666666669" y1="0" x2="241.66666666666669" y2="177" fill="rgb(0, 0, 0)" stroke="rgb(66, 66, 66)" stroke-width="1px" opacity="0.25"></line><line x1="265.8333333333333" y1="0" x2="265.8333333333333" y2="177" fill="rgb(0, 0, 0)" stroke="rgb(66, 66, 66)" stroke-width="1px" opacity="0.25"></line><line x1="290" y1="0" x2="290" y2="177" fill="rgb(0, 0, 0)" stroke="rgb(66, 66, 66)" stroke-width="1px" opacity="0.25"></line></g><g><line x1="0" y1="177" x2="290" y2="177" fill="rgb(0, 0, 0)" stroke="rgb(66, 66, 66)" stroke-width="1px" opacity="0.25"></line><line x1="0" y1="151.71428571428572" x2="290" y2="151.71428571428572" fill="rgb(0, 0, 0)" stroke="rgb(66, 66, 66)" stroke-width="1px" opacity="0.25"></line><line x1="0" y1="126.42857142857143" x2="290" y2="126.42857142857143" fill="rgb(0, 0, 0)" stroke="rgb(66, 66, 66)" stroke-width="1px" opacity="0.25"></line><line x1="0" y1="101.14285714285714" x2="290" y2="101.14285714285714" fill="rgb(0, 0, 0)" stroke="rgb(66, 66, 66)" stroke-width="1px" opacity="0.25"></line><line x1="0" y1="75.85714285714286" x2="290" y2="75.85714285714286" fill="rgb(0, 0, 0)" stroke="rgb(66, 66, 66)" stroke-width="1px" opacity="0.25"></line><line x1="0" y1="50.57142857142857" x2="290" y2="50.57142857142857" fill="rgb(0, 0, 0)" stroke="rgb(66, 66, 66)" stroke-width="1px" opacity="0.25"></line><line x1="0" y1="25.285714285714295" x2="290" y2="25.285714285714295" fill="rgb(0, 0, 0)" stroke="rgb(66, 66, 66)" stroke-width="1px" opacity="0.25"></line><line x1="0" y1="0" x2="290" y2="0" fill="rgb(0, 0, 0)" stroke="rgb(66, 66, 66)" stroke-width="1px" opacity="0.25"></line></g></g></g><g><g><line x1="0" y1="252.85714285714286" x2="290" y2="252.85714285714286" fill="rgb(0, 0, 0)" stroke="rgb(153, 153, 153)" stroke-width="1.5px"></line></g></g><g><g><line x1="24.166666666666664" y1="0" x2="24.166666666666664" y2="177" fill="rgb(0, 0, 0)" stroke="rgb(153, 153, 153)" stroke-width="1.5px"></line></g></g><g><g><g><g><g><path stroke="rgb(255, 112, 67)" stroke-width="2px" d="M36.25,-58.08357363512061L38.666666666666664,12.113461549193891L41.083333333333336,52.25140643940337L43.5,77.6222852345811L45.916666666666664,93.0713424305345L48.33333333333333,102.32757214341856L50.75,107.33255481648057L53.166666666666664,110.84016671850557L55.583333333333336,113.73709411869415L58,116.66574809701288L60.41666666666667,118.81080155397461L62.833333333333336,119.92617389361848L65.25,121.71933126021665L67.66666666666667,123.83435875149381L70.08333333333333,125.34329131869623L72.5,126.77618957191078L74.91666666666667,127.59506852718363L77.33333333333333,127.1095962411594L79.75,127.85156173153197L82.16666666666667,130.27009510747774L84.58333333333334,130.67689973672123L87,133.46224167845247L89.41666666666667,134.7417831747108L91.83333333333333,134.1759498586908L94.25,134.9764509365699L96.66666666666666,136.0780718749047L99.08333333333333,137.94546057213043L101.5,139.1640534570379L103.91666666666667,141.3174389879206L106.33333333333333,141.92201389922735L108.75,143.50607282294425L111.16666666666667,143.60016466358294L113.58333333333333,143.8830775008109L116,142.4803196812258L118.41666666666667,143.36427725556396L120.83333333333334,142.95721179739175L123.25,143.63273671533813L125.66666666666667,143.22156435304936L128.08333333333334,143.80543584361791L130.5,144.21768435344498L132.91666666666666,145.88844003314784L135.33333333333334,146.08254230555406L137.75,146.51338227116594L140.16666666666666,145.76509824194648L142.58333333333331,145.913203613749L145,145.11358376208884L147.41666666666666,146.6790017630854L149.83333333333334,146.74898379209566L152.25,147.02969047013445L154.66666666666666,146.90017702927292L157.08333333333331,147.7022226497542L159.5,147.14702549419277L161.91666666666666,147.71492490759107L164.33333333333334,148.47685519894054L166.75,149.539157819987L169.16666666666669,149.27207815865827L171.58333333333334,149.014249288645L174,149.07396699916006L176.41666666666666,149.6603761515573L178.83333333333334,148.06199881017963L181.25,148.51796307569344L183.66666666666666,148.42917068076065L186.08333333333334,148.527318807077L188.5,146.9971356188758L190.91666666666666,147.7919007724398L193.33333333333331,148.00022743856152L195.75,149.81525740538893L198.16666666666666,150.33789232339518L200.58333333333334,149.10388269148757L203,148.63308001489082L205.41666666666669,150.59399851944997L207.83333333333334,152.10300915369703L210.25,152.97508469863038L212.66666666666666,151.39498115735663L215.08333333333334,151.92770808092348L217.5,150.8205471856774L219.91666666666666,151.4389428357028L222.33333333333334,151.66902228439025L224.75,151.5685381733598L227.16666666666666,151.93043427214067L229.58333333333331,151.7154213222566L232,152.13922747738803L234.41666666666666,151.5938194933734L236.83333333333334,151.51488002370436L239.25,152.33580365999637L241.66666666666669,152.36089178712768L244.08333333333334,152.8025176265761L246.5,150.6227841289765L248.91666666666666,151.39756180374525L251.33333333333334,152.8156415962329L253.75,152.88494624412107L256.1666666666667,152.33407596180464L258.58333333333337,152.5974127292696L261,153.220585159578L263.4166666666667,154.3487464738596L265.8333333333333,153.46467163451194" style="fill: none;" fill="none"></path></g></g></g></g><g opacity="0.2"><g><g><g><path stroke="rgb(255, 112, 67)" stroke-width="2px" d="M31.416666666666668,-129.40044634682792L33.833333333333336,58.828104972839355L36.25,100.9108772277832L38.666666666666664,109.22123214176723L41.083333333333336,109.64930983952114L43.5,114.61327007838658L45.916666666666664,115.85570096969604L48.33333333333333,116.07199450901577L50.75,114.79463400159563L53.166666666666664,116.08249630246843L55.583333333333336,118.07302624838692L58,121.05299152646745L60.41666666666667,122.02586030960083L62.833333333333336,121.5984457560948L65.25,124.40830850601196L67.66666666666667,127.00636298315865L70.08333333333333,127.60646029881069L72.5,128.9254059791565L74.91666666666667,128.82334205082486L77.33333333333333,126.38140378679549L79.75,128.96449531827653L82.16666666666667,133.89786652156283L84.58333333333334,131.28710378919328L87,137.6402427128383L89.41666666666667,136.66109214510237L91.83333333333333,133.32720075334822L94.25,136.17720181601388L96.66666666666666,137.73050267355782L99.08333333333333,140.74654299872262L101.5,140.99194254193986L103.91666666666667,144.54751702717374L106.33333333333333,142.82887622288297L108.75,145.8821611404419L111.16666666666667,143.74130242211479L113.58333333333333,144.30744675227572L116,140.3761829648699L118.41666666666667,144.69021361214774L120.83333333333334,142.3466136114938L123.25,144.64602409090315L125.66666666666667,142.60480581011092L128.08333333333334,144.68124307904924L130.5,144.83605711800712L132.91666666666666,148.3945735522679L135.33333333333334,146.37369571413313L137.75,147.15964221954346L140.16666666666666,144.64267219815935L142.58333333333331,146.13536167144775L145,143.91415398461479L147.41666666666666,149.02712876456124L149.83333333333334,146.85395683561052L152.25,147.45075048719133L154.66666666666666,146.70590686798096L157.08333333333331,148.90529108047485L159.5,146.31422976085116L161.91666666666666,148.56677402768815L164.33333333333334,149.61975063596452L166.75,151.1326117515564L169.16666666666669,148.8714586666652L171.58333333333334,148.62750598362516L174,149.1635435649327L176.41666666666666,150.53998988015312L178.83333333333334,145.66443279811313L181.25,149.20190947396415L183.66666666666666,148.29598208836148L186.08333333333334,148.6745409965515L188.5,144.701860836574L190.91666666666666,148.9840485027858L193.33333333333331,148.31271743774414L195.75,152.53780235563005L198.16666666666666,151.12184470040458L200.58333333333334,147.25286824362618L203,147.92687599999564L205.41666666666669,153.53537627628873L207.83333333333334,154.36652510506767L210.25,154.28319801603044L212.66666666666666,149.0248258454459L215.08333333333334,152.72679846627372L217.5,149.1598058428083L219.91666666666666,152.36653631074088L222.33333333333334,152.01414145742143L224.75,151.41781200681413L227.16666666666666,152.47327842031206L229.58333333333331,151.39290189743042L232,152.77493671008517L234.41666666666666,150.7757075173514L236.83333333333334,151.39647081920077L239.25,153.56718911443437L241.66666666666669,152.39852397782462L244.08333333333334,153.46495638574874L246.5,147.35318388257707L248.91666666666666,152.55972831589835L251.33333333333334,154.9427612849644L253.75,152.9889032159533L256.1666666666667,151.50777053833008L258.58333333333337,152.992417880467L261,154.15534380504062L263.4166666666667,156.04098844528198L265.8333333333333,152.13855937549044" style="fill: none;" fill="none"></path></g></g></g></g></g></g><g transform="translate(40, 177)" clip-path="url(#clip_1)"><clipPath id="clip_1"><rect width="290" height="23"></rect></clipPath><g><g><line x1="0" y1="0" x2="0" y2="5" style="visibility: inherit;" fill="rgb(0, 0, 0)" stroke="rgb(204, 204, 204)" stroke-width="1px"></line><line x1="24.166666666666664" y1="0" x2="24.166666666666664" y2="5" style="visibility: inherit;" fill="rgb(0, 0, 0)" stroke="rgb(204, 204, 204)" stroke-width="1px"></line><line x1="48.33333333333333" y1="0" x2="48.33333333333333" y2="5" style="visibility: inherit;" fill="rgb(0, 0, 0)" stroke="rgb(204, 204, 204)" stroke-width="1px"></line><line x1="72.5" y1="0" x2="72.5" y2="5" style="visibility: inherit;" fill="rgb(0, 0, 0)" stroke="rgb(204, 204, 204)" stroke-width="1px"></line><line x1="96.66666666666666" y1="0" x2="96.66666666666666" y2="5" style="visibility: inherit;" fill="rgb(0, 0, 0)" stroke="rgb(204, 204, 204)" stroke-width="1px"></line><line x1="120.83333333333334" y1="0" x2="120.83333333333334" y2="5" style="visibility: inherit;" fill="rgb(0, 0, 0)" stroke="rgb(204, 204, 204)" stroke-width="1px"></line><line x1="145" y1="0" x2="145" y2="5" style="visibility: inherit;" fill="rgb(0, 0, 0)" stroke="rgb(204, 204, 204)" stroke-width="1px"></line><line x1="169.16666666666669" y1="0" x2="169.16666666666669" y2="5" style="visibility: inherit;" fill="rgb(0, 0, 0)" stroke="rgb(204, 204, 204)" stroke-width="1px"></line><line x1="193.33333333333331" y1="0" x2="193.33333333333331" y2="5" style="visibility: inherit;" fill="rgb(0, 0, 0)" stroke="rgb(204, 204, 204)" stroke-width="1px"></line><line x1="217.5" y1="0" x2="217.5" y2="5" style="visibility: inherit;" fill="rgb(0, 0, 0)" stroke="rgb(204, 204, 204)" stroke-width="1px"></line><line x1="241.66666666666669" y1="0" x2="241.66666666666669" y2="5" style="visibility: inherit;" fill="rgb(0, 0, 0)" stroke="rgb(204, 204, 204)" stroke-width="1px"></line><line x1="265.8333333333333" y1="0" x2="265.8333333333333" y2="5" style="visibility: inherit;" fill="rgb(0, 0, 0)" stroke="rgb(204, 204, 204)" stroke-width="1px"></line><line x1="290" y1="0" x2="290" y2="5" style="visibility: inherit;" fill="rgb(0, 0, 0)" stroke="rgb(204, 204, 204)" stroke-width="1px"></line></g><g transform="translate(0, 8)"><text x="0" y="0" dx="0em" dy="0.95em" style="text-anchor: middle; visibility: hidden; font-family: Roboto, sans-serif; font-size: 12px; font-weight: 200;" fill="rgb(33, 33, 33)" stroke="none" stroke-width="1px">-10</text><text x="24.166666666666664" y="0" dx="0em" dy="0.95em" style="text-anchor: middle; visibility: inherit; font-family: Roboto, sans-serif; font-size: 12px; font-weight: 200;" fill="rgb(33, 33, 33)" stroke="none" stroke-width="1px">0</text><text x="48.33333333333333" y="0" dx="0em" dy="0.95em" style="text-anchor: middle; visibility: inherit; font-family: Roboto, sans-serif; font-size: 12px; font-weight: 200;" fill="rgb(33, 33, 33)" stroke="none" stroke-width="1px">10</text><text x="72.5" y="0" dx="0em" dy="0.95em" style="text-anchor: middle; visibility: inherit; font-family: Roboto, sans-serif; font-size: 12px; font-weight: 200;" fill="rgb(33, 33, 33)" stroke="none" stroke-width="1px">20</text><text x="96.66666666666666" y="0" dx="0em" dy="0.95em" style="text-anchor: middle; visibility: inherit; font-family: Roboto, sans-serif; font-size: 12px; font-weight: 200;" fill="rgb(33, 33, 33)" stroke="none" stroke-width="1px">30</text><text x="120.83333333333334" y="0" dx="0em" dy="0.95em" style="text-anchor: middle; visibility: inherit; font-family: Roboto, sans-serif; font-size: 12px; font-weight: 200;" fill="rgb(33, 33, 33)" stroke="none" stroke-width="1px">40</text><text x="145" y="0" dx="0em" dy="0.95em" style="text-anchor: middle; visibility: inherit; font-family: Roboto, sans-serif; font-size: 12px; font-weight: 200;" fill="rgb(33, 33, 33)" stroke="none" stroke-width="1px">50</text><text x="169.16666666666669" y="0" dx="0em" dy="0.95em" style="text-anchor: middle; visibility: inherit; font-family: Roboto, sans-serif; font-size: 12px; font-weight: 200;" fill="rgb(33, 33, 33)" stroke="none" stroke-width="1px">60</text><text x="193.33333333333331" y="0" dx="0em" dy="0.95em" style="text-anchor: middle; visibility: inherit; font-family: Roboto, sans-serif; font-size: 12px; font-weight: 200;" fill="rgb(33, 33, 33)" stroke="none" stroke-width="1px">70</text><text x="217.5" y="0" dx="0em" dy="0.95em" style="text-anchor: middle; visibility: inherit; font-family: Roboto, sans-serif; font-size: 12px; font-weight: 200;" fill="rgb(33, 33, 33)" stroke="none" stroke-width="1px">80</text><text x="241.66666666666669" y="0" dx="0em" dy="0.95em" style="text-anchor: middle; visibility: inherit; font-family: Roboto, sans-serif; font-size: 12px; font-weight: 200;" fill="rgb(33, 33, 33)" stroke="none" stroke-width="1px">90</text><text x="265.8333333333333" y="0" dx="0em" dy="0.95em" style="text-anchor: middle; visibility: inherit; font-family: Roboto, sans-serif; font-size: 12px; font-weight: 200;" fill="rgb(33, 33, 33)" stroke="none" stroke-width="1px">100</text><text x="290" y="0" dx="0em" dy="0.95em" style="text-anchor: middle; visibility: hidden; font-family: Roboto, sans-serif; font-size: 12px; font-weight: 200;" fill="rgb(33, 33, 33)" stroke="none" stroke-width="1px">110</text></g><line x1="0" y1="0" x2="290" y2="0" fill="rgb(0, 0, 0)" stroke="rgb(204, 204, 204)" stroke-width="1px"></line></g></g></g></g></svg>