<svg viewBox="0 0 330 200" xmlns="http://www.w3.org/2000/svg"><g><g><g><g><g><line x1="51.5625" y1="173.94789685731175" x2="46.5625" y2="173.94789685731175" style="visibility: inherit;" fill="rgb(0, 0, 0)" stroke="rgb(204, 204, 204)" stroke-width="1px"></line><line x1="51.5625" y1="157.29523904751545" x2="46.5625" y2="157.29523904751545" style="visibility: inherit;" fill="rgb(0, 0, 0)" stroke="rgb(204, 204, 204)" stroke-width="1px"></line><line x1="51.5625" y1="140.64258123771913" x2="46.5625" y2="140.64258123771913" style="visibility: inherit;" fill="rgb(0, 0, 0)" stroke="rgb(204, 204, 204)" stroke-width="1px"></line><line x1="51.5625" y1="123.98992342792283" x2="46.5625" y2="123.98992342792283" style="visibility: inherit;" fill="rgb(0, 0, 0)" stroke="rgb(204, 204, 204)" stroke-width="1px"></line><line x1="51.5625" y1="107.33726561812654" x2="46.5625" y2="107.33726561812654" style="visibility: inherit;" fill="rgb(0, 0, 0)" stroke="rgb(204, 204, 204)" stroke-width="1px"></line><line x1="51.5625" y1="90.68460780833033" x2="46.5625" y2="90.68460780833033" style="visibility: inherit;" fill="rgb(0, 0, 0)" stroke="rgb(204, 204, 204)" stroke-width="1px"></line><line x1="51.5625" y1="74.03194999853403" x2="46.5625" y2="74.03194999853403" style="visibility: inherit;" fill="rgb(0, 0, 0)" stroke="rgb(204, 204, 204)" stroke-width="1px"></line><line x1="51.5625" y1="57.379292188737736" x2="46.5625" y2="57.379292188737736" style="visibility: inherit;" fill="rgb(0, 0, 0)" stroke="rgb(204, 204, 204)" stroke-width="1px"></line><line x1="51.5625" y1="40.72663437894144" x2="46.5625" y2="40.72663437894144" style="visibility: inherit;" fill="rgb(0, 0, 0)" stroke="rgb(204, 204, 204)" stroke-width="1px"></line><line x1="51.5625" y1="24.073976569145145" x2="46.5625" y2="24.073976569145145" style="visibility: inherit;" fill="rgb(0, 0, 0)" stroke="rgb(204, 204, 204)" stroke-width="1px"></line><line x1="51.5625" y1="7.421318759348829" x2="46.5625" y2="7.421318759348829" style="visibility: inherit;" fill="rgb(0, 0, 0)" stroke="rgb(204, 204, 204)" stroke-width="1px"></line></g><g transform="translate(41.5625, 0)"><text x="0" y="173.94789685731175" dx="0em" dy="0.3em" style="text-anchor: end; visibility: hidden; font-family: Roboto, sans-serif; font-size: 12px; font-weight: 200;" fill="rgb(33, 33, 33)" stroke="none" stroke-width="1px">0.48</text><text x="0" y="157.29523904751545" dx="0em" dy="0.3em" style="text-anchor: end; visibility: inherit; font-family: Roboto, sans-serif; font-size: 12px; font-weight: 200;" fill="rgb(33, 33, 33)" stroke="none" stroke-width="1px">0.5</text><text x="0" y="140.64258123771913" dx="0em" dy="0.3em" style="text-anchor: end; visibility: hidden; font-family: Roboto, sans-serif; font-size: 12px; font-weight: 200;" fill="rgb(33, 33, 33)" stroke="none" stroke-width="1px">0.52</text><text x="0" y="123.98992342792283" dx="0em" dy="0.3em" style="text-anchor: end; visibility: inherit; font-family: Roboto, sans-serif; font-size: 12px; font-weight: 200;" fill="rgb(33, 33, 33)" stroke="none" stroke-width="1px">0.54</text><text x="0" y="107.33726561812654" dx="0em" dy="0.3em" style="text-anchor: end; visibility: hidden; font-family: Roboto, sans-serif; font-size: 12px; font-weight: 200;" fill="rgb(33, 33, 33)" stroke="none" stroke-width="1px">0.56</text><text x="0" y="90.68460780833033" dx="0em" dy="0.3em" style="text-anchor: end; visibility: inherit; font-family: Roboto, sans-serif; font-size: 12px; font-weight: 200;" fill="rgb(33, 33, 33)" stroke="none" stroke-width="1px">0.58</text><text x="0" y="74.03194999853403" dx="0em" dy="0.3em" style="text-anchor: end; visibility: hidden; font-family: Roboto, sans-serif; font-size: 12px; font-weight: 200;" fill="rgb(33, 33, 33)" stroke="none" stroke-width="1px">0.6</text><text x="0" y="57.379292188737736" dx="0em" dy="0.3em" style="text-anchor: end; visibility: inherit; font-family: Roboto, sans-serif; font-size: 12px; font-weight: 200;" fill="rgb(33, 33, 33)" stroke="none" stroke-width="1px">0.62</text><text x="0" y="40.72663437894144" dx="0em" dy="0.3em" style="text-anchor: end; visibility: hidden; font-family: Roboto, sans-serif; font-size: 12px; font-weight: 200;" fill="rgb(33, 33, 33)" stroke="none" stroke-width="1px">0.64</text><text x="0" y="24.073976569145145" dx="0em" dy="0.3em" style="text-anchor: end; visibility: inherit; font-family: Roboto, sans-serif; font-size: 12px; font-weight: 200;" fill="rgb(33, 33, 33)" stroke="none" stroke-width="1px">0.66</text><text x="0" y="7.421318759348829" dx="0em" dy="0.3em" style="text-anchor: end; visibility: hidden; font-family: Roboto, sans-serif; font-size: 12px; font-weight: 200;" fill="rgb(33, 33, 33)" stroke="none" stroke-width="1px">0.68</text></g><line x1="51.5625" y1="0" x2="51.5625" y2="177" fill="rgb(0, 0, 0)" stroke="rgb(204, 204, 204)" stroke-width="1px"></line></g></g><g transform="translate(51, 0)" clip-path="url(#clip_0)"><clipPath id="clip_0"><rect width="278" height="177"></rect></clipPath><g><g><g><line x1="26.4609737748486" y1="0" x2="26.4609737748486" y2="177" fill="rgb(0, 0, 0)" stroke="rgb(66, 66, 66)" stroke-width="1px" opacity="0.25"></line><line x1="65.75524842667211" y1="0" x2="65.75524842667211" y2="177" fill="rgb(0, 0, 0)" stroke="rgb(66, 66, 66)" stroke-width="1px" opacity="0.25"></line><line x1="105.04952307849562" y1="0" x2="105.04952307849562" y2="177" fill="rgb(0, 0, 0)" stroke="rgb(66, 66, 66)" stroke-width="1px" opacity="0.25"></line><line x1="144.3437977303191" y1="0" x2="144.3437977303191" y2="177" fill="rgb(0, 0, 0)" stroke="rgb(66, 66, 66)" stroke-width="1px" opacity="0.25"></line><line x1="183.6380723821426" y1="0" x2="183.6380723821426" y2="177" fill="rgb(0, 0, 0)" stroke="rgb(66, 66, 66)" stroke-width="1px" opacity="0.25"></line><line x1="222.93234703396612" y1="0" x2="222.93234703396612" y2="177" fill="rgb(0, 0, 0)" stroke="rgb(66, 66, 66)" stroke-width="1px" opacity="0.25"></line><line x1="262.2266216857896" y1="0" x2="262.2266216857896" y2="177" fill="rgb(0, 0, 0)" stroke="rgb(66, 66, 66)" stroke-width="1px" opacity="0.25"></line></g><g><line x1="0" y1="173.94789685731175" x2="278.4375" y2="173.94789685731175" fill="rgb(0, 0, 0)" stroke="rgb(66, 66, 66)" stroke-width="1px" opacity="0.25"></line><line x1="0" y1="157.29523904751545" x2="278.4375" y2="157.29523904751545" fill="rgb(0, 0, 0)" stroke="rgb(66, 66, 66)" stroke-width="1px" opacity="0.25"></line><line x1="0" y1="140.64258123771913" x2="278.4375" y2="140.64258123771913" fill="rgb(0, 0, 0)" stroke="rgb(66, 66, 66)" stroke-width="1px" opacity="0.25"></line><line x1="0" y1="123.98992342792283" x2="278.4375" y2="123.98992342792283" fill="rgb(0, 0, 0)" stroke="rgb(66, 66, 66)" stroke-width="1px" opacity="0.25"></line><line x1="0" y1="107.33726561812654" x2="278.4375" y2="107.33726561812654" fill="rgb(0, 0, 0)" stroke="rgb(66, 66, 66)" stroke-width="1px" opacity="0.25"></line><line x1="0" y1="90.68460780833033" x2="278.4375" y2="90.68460780833033" fill="rgb(0, 0, 0)" stroke="rgb(66, 66, 66)" stroke-width="1px" opacity="0.25"></line><line x1="0" y1="74.03194999853403" x2="278.4375" y2="74.03194999853403" fill="rgb(0, 0, 0)" stroke="rgb(66, 66, 66)" stroke-width="1px" opacity="0.25"></line><line x1="0" y1="57.379292188737736" x2="278.4375" y2="57.379292188737736" fill="rgb(0, 0, 0)" stroke="rgb(66, 66, 66)" stroke-width="1px" opacity="0.25"></line><line x1="0" y1="40.72663437894144" x2="278.4375" y2="40.72663437894144" fill="rgb(0, 0, 0)" stroke="rgb(66, 66, 66)" stroke-width="1px" opacity="0.25"></line><line x1="0" y1="24.073976569145145" x2="278.4375" y2="24.073976569145145" fill="rgb(0, 0, 0)" stroke="rgb(66, 66, 66)" stroke-width="1px" opacity="0.25"></line><line x1="0" y1="7.421318759348829" x2="278.4375" y2="7.421318759348829" fill="rgb(0, 0, 0)" stroke="rgb(66, 66, 66)" stroke-width="1px" opacity="0.25"></line></g></g></g><g><g><line x1="0" y1="573.6116842924225" x2="278.4375" y2="573.6116842924225" fill="rgb(0, 0, 0)" stroke="rgb(153, 153, 153)" stroke-width="1.5px"></line></g></g><g><g><line x1="26.4609737748486" y1="0" x2="26.4609737748486" y2="177" fill="rgb(0, 0, 0)" stroke="rgb(153, 153, 153)" stroke-width="1.5px"></line></g></g><g><g><g><g><g><path stroke="rgb(255, 112, 67)" stroke-width="2px" d="M28.42568750743978,171.75957402715102L30.390401240030954,175.62917712845373L32.355114972622125,161.31898365603243L34.319828705213304,144.28673435713284L36.284542437804475,135.32141760265552L38.249256170395654,122.25868272220931L40.213969902986825,127.34203488501574L42.178683635578004,142.98056307066477L44.143397368169175,140.8281075512048L46.108111100760354,129.24047121550038L48.072824833351525,114.14766076773938L50.037538565942704,118.90620872614105L52.00225229853388,120.40792096664099L53.966966031125054,119.49154260850007L55.93167976371623,106.51088993904669L57.896393496307404,118.92879808407469L59.86110722889858,117.02460169932057L61.825820961489754,122.9070056233853L63.79053469408093,118.64301745216177L65.75524842667211,109.70102485547721L67.71996215926329,116.54826370423444L69.68467589185445,123.9657424430875L71.64938962444563,125.61934456363396L73.61410335703681,113.24660014689462L75.57881708962799,123.35103533626892L77.54353082221917,114.53301654155044L79.50824455481033,106.63755448840422L81.47295828740151,116.86634882743382L83.43767201999269,99.11344576220459L85.40238575258387,94.39689554456521L87.36709948517503,102.22038231237784L89.33181321776621,102.08948318196221L91.29652695035739,86.59655914950923L93.26124068294857,91.71175490915485L95.22595441553975,86.51859215242378L97.19066814813091,91.17392753568224L99.15538188072209,98.23705069150446L101.12009561331327,99.35787935275552L103.08480934590445,86.13181467851277L105.04952307849562,96.70624470485427L107.01423681108679,97.45732145535698L108.97895054367795,95.68761524706015L110.94366427626913,90.65477385366172L112.90837800886031,90.73075398157074L114.87309174145147,92.65510929590032L116.83780547404265,84.15972234636489L118.80251920663383,89.07543556471941L120.76723293922501,90.42364029032404L122.73194667181619,95.20358079353962L124.69666040440735,90.64189721510886L126.66137413699853,91.6410613126755L128.6260878695897,85.38736018543119L130.59080160218087,77.51465978433565L132.55551533477205,72.23595147940055L134.52022906736323,73.01840378556764L136.4849427999544,73.12492991930867L138.4496565325456,71.39547957997121L140.41437026513674,69.653279106663L142.37908399772795,64.57288031574008L144.3437977303191,66.02940639459531L146.30851146291027,59.60177598837267L148.27322519550145,62.72649915712391L150.23793892809263,60.86515881379117L152.2026526606838,69.84670121296935L154.167366393275,61.05952078296803L156.13208012586614,63.53710504627684L158.09679385845735,59.4514147311894L160.0615075910485,52.730078611963876L162.0262213236397,58.45403852585891L163.99093505623085,58.451124640451944L165.95564878882203,53.325481903909214L167.9203625214132,46.34313943328426L169.8850762540044,44.99321525994402L171.84978998659557,45.14399467909257L173.81450371918675,37.826154829019245L175.7792174517779,32.06909098847137L177.7439311843691,26.11695639485499L179.70864491696025,29.07863058339551L181.67335864955146,30.193805435721746L183.6380723821426,37.97231358632539L185.6027861147338,44.261982060638175L187.56749984732497,37.36100809706587L189.53221357991615,35.46211635476337L191.4969273125073,27.405540736016516L193.4616410450985,28.61350323279675L195.42635477768965,24.34248815228959L197.39106851028086,25.58011418768786L199.355782242872,26.47213201434652L201.3204959754632,26.857900504922007L203.28520970805437,16.22242388526466L205.24992344064552,13.406509722422415L207.21463717323672,16.435229622664263L209.17935090582787,12.359976048685798L211.14406463841905,18.56138950964163L213.10877837101023,17.17970341112788L215.0734921036014,25.039957966270457L217.0382058361926,21.451130113760197L219.00291956878377,18.65734412015235L220.96763330137492,15.572011984575893L222.93234703396612,8.46881647120805" style="fill: none;" fill="none"></path></g></g></g></g><g opacity="0.2"><g><g><g><path stroke="rgb(255, 112, 67)" stroke-width="2px" d="M28.42568750743978,171.75957402715102L30.390401240030954,177.95093898923537L32.355114972622125,147.58119792250798L34.319828705213304,124.2568091816268L36.284542437804475,123.61630004801003L38.249256170395654,104.18821779799508L40.213969902986825,134.6113098114634L42.178683635578004,165.78168729521175L44.143397368169175,137.65365375296156L46.108111100760354,112.03418172646845L48.072824833351525,91.64533577602835L50.037538565942704,126.01813485589145L52.00225229853388,122.65558597637252L53.966966031125054,118.11877035188951L55.93167976371623,87.05516920480444L57.896393496307404,137.54690223069213L59.86110722889858,114.1691129142824L61.825820961489754,131.7291179677632L63.79053469408093,112.24768477100737L65.75524842667211,96.28885329399317L67.71996215926329,126.81874645851858L69.68467589185445,135.0917164760698L71.64938962444563,128.09971509696447L73.61410335703681,94.68763008873889L75.57881708962799,138.5076163023296L77.54353082221917,101.30602595429492L79.50824455481033,94.79438161100833L81.47295828740151,132.20952463236964L83.43767201999269,72.48410751729324L85.40238575258387,87.32207282487192L87.36709948517503,113.95560986974344L89.33181321776621,101.89313451238313L91.29652695035739,63.357174950373974L93.26124068294857,99.38454818223227L95.22595441553975,78.72884824051232L97.19066814813091,98.15693049052727L99.15538188072209,108.8317353159599L101.12009561331327,101.03912233422743L103.08480934590445,66.29271774081504L105.04952307849562,112.56788970902811L107.01423681108679,98.58393657960512L108.97895054367795,93.03305593674371L110.94366427626913,83.1055117671973L112.90837800886031,90.8447241734012L114.87309174145147,95.54164226689458L116.83780547404265,71.41664192338627L118.80251920663383,96.4490053917912L120.76723293922501,92.44594737865549L122.73194667181619,102.37349154820188L124.69666040440735,83.79937184755498L126.66137413699853,93.13980745901316L128.6260878695897,76.00680849461018L130.59080160218087,65.70560918272682L132.55551533477205,64.31788902201149L134.52022906736323,74.19208224481697L136.4849427999544,73.28471911992038L138.4496565325456,68.80130407096593L140.41437026513674,67.03997839670129L142.37908399772795,56.95228212935686L144.3437977303191,68.21419551287772L146.30851146291027,49.960330379039206L148.27322519550145,67.41358391025058L150.23793892809263,58.0731482987924L152.2026526606838,83.31901481173622L154.167366393275,47.87875013796618L156.13208012586614,67.25348144124021L158.09679385845735,53.322879258558125L160.0615075910485,42.648074433125494L162.0262213236397,67.03997839670129L163.99093505623085,58.44675381234169L165.95564878882203,45.63701779909512L167.9203625214132,35.86962572734675L169.8850762540044,42.968328999933874L171.84978998659557,45.370163807815295L173.81450371918675,26.849395053909298L175.7792174517779,23.43349522764947L177.7439311843691,17.18875450443038L179.70864491696025,33.521141866206236L181.67335864955146,31.866567714211058L183.6380723821426,49.64007581223081L185.6027861147338,53.69648477210742L187.56749984732497,27.00954715170733L189.53221357991615,32.61377874130962L191.4969273125073,15.320677307896279L193.4616410450985,30.42544697796714L195.42635477768965,17.935965531528968L197.39106851028086,27.43655324078518L199.355782242872,27.810158754334452L201.3204959754632,27.43655324078518L203.28520970805437,0.2692089557786673L205.24992344064552,9.182638478159L207.21463717323672,20.978309473027167L209.17935090582787,6.247095687717935L211.14406463841905,27.863509701075365L213.10877837101023,15.107174263357354L215.0734921036014,36.830339798984255L217.0382058361926,16.067888334994862L219.00291956878377,14.466665129740578L220.96763330137492,10.944013781211295L222.93234703396612,-2.1859767988436536" style="fill: none;" fill="none"></path></g></g></g></g></g></g><g transform="translate(51, 177)" clip-path="url(#clip_1)"><clipPath id="clip_1"><rect width="278" height="23"></rect></clipPath><g><g><line x1="26.4609737748486" y1="0" x2="26.4609737748486" y2="5" style="visibility: inherit;" fill="rgb(0, 0, 0)" stroke="rgb(204, 204, 204)" stroke-width="1px"></line><line x1="65.75524842667211" y1="0" x2="65.75524842667211" y2="5" style="visibility: inherit;" fill="rgb(0, 0, 0)" stroke="rgb(204, 204, 204)" stroke-width="1px"></line><line x1="105.04952307849562" y1="0" x2="105.04952307849562" y2="5" style="visibility: inherit;" fill="rgb(0, 0, 0)" stroke="rgb(204, 204, 204)" stroke-width="1px"></line><line x1="144.3437977303191" y1="0" x2="144.3437977303191" y2="5" style="visibility: inherit;" fill="rgb(0, 0, 0)" stroke="rgb(204, 204, 204)" stroke-width="1px"></line><line x1="183.6380723821426" y1="0" x2="183.6380723821426" y2="5" style="visibility: inherit;" fill="rgb(0, 0, 0)" stroke="rgb(204, 204, 204)" stroke-width="1px"></line><line x1="222.93234703396612" y1="0" x2="222.93234703396612" y2="5" style="visibility: inherit;" fill="rgb(0, 0, 0)" stroke="rgb(204, 204, 204)" stroke-width="1px"></line><line x1="262.2266216857896" y1="0" x2="262.2266216857896" y2="5" style="visibility: inherit;" fill="rgb(0, 0, 0)" stroke="rgb(204, 204, 204)" stroke-width="1px"></line></g><g transform="translate(0, 8)"><text x="26.4609737748486" y="0" dx="0em" dy="0.95em" style="text-anchor: middle; visibility: inherit; font-family: Roboto, sans-serif; font-size: 12px; font-weight: 200;" fill="rgb(33, 33, 33)" stroke="none" stroke-width="1px">0</text><text x="65.75524842667211" y="0" dx="0em" dy="0.95em" style="text-anchor: middle; visibility: inherit; font-family: Roboto, sans-serif; font-size: 12px; font-weight: 200;" fill="rgb(33, 33, 33)" stroke="none" stroke-width="1px">20</text><text x="105.04952307849562" y="0" dx="0em" dy="0.95em" style="text-anchor: middle; visibility: inherit; font-family: Roboto, sans-serif; font-size: 12px; font-weight: 200;" fill="rgb(33, 33, 33)" stroke="none" stroke-width="1px">40</text><text x="144.3437977303191" y="0" dx="0em" dy="0.95em" style="text-anchor: middle; visibility: inherit; font-family: Roboto, sans-serif; font-size: 12px; font-weight: 200;" fill="rgb(33, 33, 33)" stroke="none" stroke-width="1px">60</text><text x="183.6380723821426" y="0" dx="0em" dy="0.95em" style="text-anchor: middle; visibility: inherit; font-family: Roboto, sans-serif; font-size: 12px; font-weight: 200;" fill="rgb(33, 33, 33)" stroke="none" stroke-width="1px">80</text><text x="222.93234703396612" y="0" dx="0em" dy="0.95em" style="text-anchor: middle; visibility: inherit; font-family: Roboto, sans-serif; font-size: 12px; font-weight: 200;" fill="rgb(33, 33, 33)" stroke="none" stroke-width="1px">100</text><text x="262.2266216857896" y="0" dx="0em" dy="0.95em" style="text-anchor: middle; visibility: inherit; font-family: Roboto, sans-serif; font-size: 12px; font-weight: 200;" fill="rgb(33, 33, 33)" stroke="none" stroke-width="1px">120</text></g><line x1="0" y1="0" x2="278.4375" y2="0" fill="rgb(0, 0, 0)" stroke="rgb(204, 204, 204)" stroke-width="1px"></line></g></g></g></g></svg>