<svg viewBox="0 0 330 200" xmlns="http://www.w3.org/2000/svg"><g><g><g><g><g><line x1="50" y1="172.24910468323836" x2="45" y2="172.24910468323836" style="visibility: inherit;" fill="rgb(0, 0, 0)" stroke="rgb(204, 204, 204)" stroke-width="1px"></line><line x1="50" y1="160.72034158414857" x2="45" y2="160.72034158414857" style="visibility: inherit;" fill="rgb(0, 0, 0)" stroke="rgb(204, 204, 204)" stroke-width="1px"></line><line x1="50" y1="149.1915784850588" x2="45" y2="149.1915784850588" style="visibility: inherit;" fill="rgb(0, 0, 0)" stroke="rgb(204, 204, 204)" stroke-width="1px"></line><line x1="50" y1="137.66281538596903" x2="45" y2="137.66281538596903" style="visibility: inherit;" fill="rgb(0, 0, 0)" stroke="rgb(204, 204, 204)" stroke-width="1px"></line><line x1="50" y1="126.13405228687921" x2="45" y2="126.13405228687921" style="visibility: inherit;" fill="rgb(0, 0, 0)" stroke="rgb(204, 204, 204)" stroke-width="1px"></line><line x1="50" y1="114.60528918778942" x2="45" y2="114.60528918778942" style="visibility: inherit;" fill="rgb(0, 0, 0)" stroke="rgb(204, 204, 204)" stroke-width="1px"></line><line x1="50" y1="103.07652608869962" x2="45" y2="103.07652608869962" style="visibility: inherit;" fill="rgb(0, 0, 0)" stroke="rgb(204, 204, 204)" stroke-width="1px"></line><line x1="50" y1="91.54776298960981" x2="45" y2="91.54776298960981" style="visibility: inherit;" fill="rgb(0, 0, 0)" stroke="rgb(204, 204, 204)" stroke-width="1px"></line><line x1="50" y1="80.01899989052009" x2="45" y2="80.01899989052009" style="visibility: inherit;" fill="rgb(0, 0, 0)" stroke="rgb(204, 204, 204)" stroke-width="1px"></line><line x1="50" y1="68.49023679143028" x2="45" y2="68.49023679143028" style="visibility: inherit;" fill="rgb(0, 0, 0)" stroke="rgb(204, 204, 204)" stroke-width="1px"></line><line x1="50" y1="56.961473692340476" x2="45" y2="56.961473692340476" style="visibility: inherit;" fill="rgb(0, 0, 0)" stroke="rgb(204, 204, 204)" stroke-width="1px"></line><line x1="50" y1="45.4327105932507" x2="45" y2="45.4327105932507" style="visibility: inherit;" fill="rgb(0, 0, 0)" stroke="rgb(204, 204, 204)" stroke-width="1px"></line><line x1="50" y1="33.90394749416089" x2="45" y2="33.90394749416089" style="visibility: inherit;" fill="rgb(0, 0, 0)" stroke="rgb(204, 204, 204)" stroke-width="1px"></line><line x1="50" y1="22.375184395071084" x2="45" y2="22.375184395071084" style="visibility: inherit;" fill="rgb(0, 0, 0)" stroke="rgb(204, 204, 204)" stroke-width="1px"></line><line x1="50" y1="10.846421295981358" x2="45" y2="10.846421295981358" style="visibility: inherit;" fill="rgb(0, 0, 0)" stroke="rgb(204, 204, 204)" stroke-width="1px"></line></g><g transform="translate(40, 0)"><text x="0" y="172.24910468323836" dx="0em" dy="0.3em" style="text-anchor: end; visibility: hidden; font-family: Roboto, sans-serif; font-size: 12px; font-weight: 200;" fill="rgb(33, 33, 33)" stroke="none" stroke-width="1px">0.66</text><text x="0" y="160.72034158414857" dx="0em" dy="0.3em" style="text-anchor: end; visibility: inherit; font-family: Roboto, sans-serif; font-size: 12px; font-weight: 200;" fill="rgb(33, 33, 33)" stroke="none" stroke-width="1px">0.68</text><text x="0" y="149.1915784850588" dx="0em" dy="0.3em" style="text-anchor: end; visibility: hidden; font-family: Roboto, sans-serif; font-size: 12px; font-weight: 200;" fill="rgb(33, 33, 33)" stroke="none" stroke-width="1px">0.7</text><text x="0" y="137.66281538596903" dx="0em" dy="0.3em" style="text-anchor: end; visibility: inherit; font-family: Roboto, sans-serif; font-size: 12px; font-weight: 200;" fill="rgb(33, 33, 33)" stroke="none" stroke-width="1px">0.72</text><text x="0" y="126.13405228687921" dx="0em" dy="0.3em" style="text-anchor: end; visibility: hidden; font-family: Roboto, sans-serif; font-size: 12px; font-weight: 200;" fill="rgb(33, 33, 33)" stroke="none" stroke-width="1px">0.74</text><text x="0" y="114.60528918778942" dx="0em" dy="0.3em" style="text-anchor: end; visibility: inherit; font-family: Roboto, sans-serif; font-size: 12px; font-weight: 200;" fill="rgb(33, 33, 33)" stroke="none" stroke-width="1px">0.76</text><text x="0" y="103.07652608869962" dx="0em" dy="0.3em" style="text-anchor: end; visibility: hidden; font-family: Roboto, sans-serif; font-size: 12px; font-weight: 200;" fill="rgb(33, 33, 33)" stroke="none" stroke-width="1px">0.78</text><text x="0" y="91.54776298960981" dx="0em" dy="0.3em" style="text-anchor: end; visibility: inherit; font-family: Roboto, sans-serif; font-size: 12px; font-weight: 200;" fill="rgb(33, 33, 33)" stroke="none" stroke-width="1px">0.8</text><text x="0" y="80.01899989052009" dx="0em" dy="0.3em" style="text-anchor: end; visibility: hidden; font-family: Roboto, sans-serif; font-size: 12px; font-weight: 200;" fill="rgb(33, 33, 33)" stroke="none" stroke-width="1px">0.82</text><text x="0" y="68.49023679143028" dx="0em" dy="0.3em" style="text-anchor: end; visibility: inherit; font-family: Roboto, sans-serif; font-size: 12px; font-weight: 200;" fill="rgb(33, 33, 33)" stroke="none" stroke-width="1px">0.84</text><text x="0" y="56.961473692340476" dx="0em" dy="0.3em" style="text-anchor: end; visibility: hidden; font-family: Roboto, sans-serif; font-size: 12px; font-weight: 200;" fill="rgb(33, 33, 33)" stroke="none" stroke-width="1px">0.86</text><text x="0" y="45.4327105932507" dx="0em" dy="0.3em" style="text-anchor: end; visibility: inherit; font-family: Roboto, sans-serif; font-size: 12px; font-weight: 200;" fill="rgb(33, 33, 33)" stroke="none" stroke-width="1px">0.88</text><text x="0" y="33.90394749416089" dx="0em" dy="0.3em" style="text-anchor: end; visibility: hidden; font-family: Roboto, sans-serif; font-size: 12px; font-weight: 200;" fill="rgb(33, 33, 33)" stroke="none" stroke-width="1px">0.9</text><text x="0" y="22.375184395071084" dx="0em" dy="0.3em" style="text-anchor: end; visibility: inherit; font-family: Roboto, sans-serif; font-size: 12px; font-weight: 200;" fill="rgb(33, 33, 33)" stroke="none" stroke-width="1px">0.92</text><text x="0" y="10.846421295981358" dx="0em" dy="0.3em" style="text-anchor: end; visibility: hidden; font-family: Roboto, sans-serif; font-size: 12px; font-weight: 200;" fill="rgb(33, 33, 33)" stroke="none" stroke-width="1px">0.94</text></g><line x1="50" y1="0" x2="50" y2="177" fill="rgb(0, 0, 0)" stroke="rgb(204, 204, 204)" stroke-width="1px"></line></g></g><g transform="translate(50, 0)" clip-path="url(#clip_0)"><clipPath id="clip_0"><rect width="280" height="177"></rect></clipPath><g><g><g><line x1="27.113615628391" y1="0" x2="27.113615628391" y2="177" fill="rgb(0, 0, 0)" stroke="rgb(66, 66, 66)" stroke-width="1px" opacity="0.25"></line><line x1="66.62839687197558" y1="0" x2="66.62839687197558" y2="177" fill="rgb(0, 0, 0)" stroke="rgb(66, 66, 66)" stroke-width="1px" opacity="0.25"></line><line x1="106.14317811556018" y1="0" x2="106.14317811556018" y2="177" fill="rgb(0, 0, 0)" stroke="rgb(66, 66, 66)" stroke-width="1px" opacity="0.25"></line><line x1="145.65795935914474" y1="0" x2="145.65795935914474" y2="177" fill="rgb(0, 0, 0)" stroke="rgb(66, 66, 66)" stroke-width="1px" opacity="0.25"></line><line x1="185.17274060272936" y1="0" x2="185.17274060272936" y2="177" fill="rgb(0, 0, 0)" stroke="rgb(66, 66, 66)" stroke-width="1px" opacity="0.25"></line><line x1="224.68752184631396" y1="0" x2="224.68752184631396" y2="177" fill="rgb(0, 0, 0)" stroke="rgb(66, 66, 66)" stroke-width="1px" opacity="0.25"></line><line x1="264.2023030898985" y1="0" x2="264.2023030898985" y2="177" fill="rgb(0, 0, 0)" stroke="rgb(66, 66, 66)" stroke-width="1px" opacity="0.25"></line></g><g><line x1="0" y1="172.24910468323836" x2="280" y2="172.24910468323836" fill="rgb(0, 0, 0)" stroke="rgb(66, 66, 66)" stroke-width="1px" opacity="0.25"></line><line x1="0" y1="160.72034158414857" x2="280" y2="160.72034158414857" fill="rgb(0, 0, 0)" stroke="rgb(66, 66, 66)" stroke-width="1px" opacity="0.25"></line><line x1="0" y1="149.1915784850588" x2="280" y2="149.1915784850588" fill="rgb(0, 0, 0)" stroke="rgb(66, 66, 66)" stroke-width="1px" opacity="0.25"></line><line x1="0" y1="137.66281538596903" x2="280" y2="137.66281538596903" fill="rgb(0, 0, 0)" stroke="rgb(66, 66, 66)" stroke-width="1px" opacity="0.25"></line><line x1="0" y1="126.13405228687921" x2="280" y2="126.13405228687921" fill="rgb(0, 0, 0)" stroke="rgb(66, 66, 66)" stroke-width="1px" opacity="0.25"></line><line x1="0" y1="114.60528918778942" x2="280" y2="114.60528918778942" fill="rgb(0, 0, 0)" stroke="rgb(66, 66, 66)" stroke-width="1px" opacity="0.25"></line><line x1="0" y1="103.07652608869962" x2="280" y2="103.07652608869962" fill="rgb(0, 0, 0)" stroke="rgb(66, 66, 66)" stroke-width="1px" opacity="0.25"></line><line x1="0" y1="91.54776298960981" x2="280" y2="91.54776298960981" fill="rgb(0, 0, 0)" stroke="rgb(66, 66, 66)" stroke-width="1px" opacity="0.25"></line><line x1="0" y1="80.01899989052009" x2="280" y2="80.01899989052009" fill="rgb(0, 0, 0)" stroke="rgb(66, 66, 66)" stroke-width="1px" opacity="0.25"></line><line x1="0" y1="68.49023679143028" x2="280" y2="68.49023679143028" fill="rgb(0, 0, 0)" stroke="rgb(66, 66, 66)" stroke-width="1px" opacity="0.25"></line><line x1="0" y1="56.961473692340476" x2="280" y2="56.961473692340476" fill="rgb(0, 0, 0)" stroke="rgb(66, 66, 66)" stroke-width="1px" opacity="0.25"></line><line x1="0" y1="45.4327105932507" x2="280" y2="45.4327105932507" fill="rgb(0, 0, 0)" stroke="rgb(66, 66, 66)" stroke-width="1px" opacity="0.25"></line><line x1="0" y1="33.90394749416089" x2="280" y2="33.90394749416089" fill="rgb(0, 0, 0)" stroke="rgb(66, 66, 66)" stroke-width="1px" opacity="0.25"></line><line x1="0" y1="22.375184395071084" x2="280" y2="22.375184395071084" fill="rgb(0, 0, 0)" stroke="rgb(66, 66, 66)" stroke-width="1px" opacity="0.25"></line><line x1="0" y1="10.846421295981358" x2="280" y2="10.846421295981358" fill="rgb(0, 0, 0)" stroke="rgb(66, 66, 66)" stroke-width="1px" opacity="0.25"></line></g></g></g><g><g><line x1="0" y1="552.6982869532014" x2="280" y2="552.6982869532014" fill="rgb(0, 0, 0)" stroke="rgb(153, 153, 153)" stroke-width="1.5px"></line></g></g><g><g><line x1="27.113615628391" y1="0" x2="27.113615628391" y2="177" fill="rgb(0, 0, 0)" stroke="rgb(153, 153, 153)" stroke-width="1.5px"></line></g></g><g><g><g><g><g><path stroke="rgb(255, 112, 67)" stroke-width="2px" d="M31.06509375274946,186.26463383992993L33.040832814928685,173.89429072191393L35.01657187710792,171.48370441586633L36.99231093928715,167.82633504578334L38.96805000146638,151.35602801537476L40.94378906364561,159.22336231952332L42.91952812582483,160.21154238158462L44.89526718800406,156.98654929786494L46.87100625018329,147.35432745705828L48.84674531236252,147.39630970207355L50.82248437454175,150.92241657580848L52.79822343672098,147.39004866767544L54.77396249890021,136.1412959579847L56.74970156107944,135.51150718826722L58.72544062325867,130.6393231352342L60.7011796854379,135.88452127985406L62.67691874761713,128.37615429316642L64.65265780979635,118.58012838454127L66.62839687197558,121.17572077204012L68.60413593415481,122.74108078267426L70.57987499633404,117.44461647079869L72.55561405851327,124.54535768081229L74.5313531206925,117.66787542075308L76.50709218287173,123.15799405611764L78.48283124505096,120.12269244699738L80.45857030723019,114.33507965683039L82.43430936940942,106.75811348453725L84.41004843158865,108.18154211649797L86.38578749376788,110.59212922733292L88.3615265559471,103.70519798806663L90.33726561812632,106.77773293080527L92.31300468030555,98.31115164866424L94.28874374248478,101.3343552405029L96.26448280466401,94.65571360477792L98.24022186684324,90.23884518129671L100.21596092902247,91.85876218854115L102.19169999120172,87.21492862174308L104.16743905338095,83.73378111180496L106.14317811556018,81.28202822694156L108.1189171777394,83.08231217710014L110.09465623991863,71.25664489887872L112.07039530209786,68.38214900898313L114.0461343642771,67.38042045113862L116.02187342645632,66.96667822870825L117.99761248863555,66.46018795618932L119.97335155081478,61.87378898207871L121.94909061299401,66.87473587966993L123.92482967517324,61.91718080801899L125.90056873735247,60.03652582410961L127.8763077995317,58.9581080233862L129.85204686171093,59.713299677098284L131.82778592389016,58.31168423570323L133.8035249860694,57.6888032835642L135.77926404824862,58.25743682764388L137.75500311042785,51.03690477981042L139.73074217260708,48.21610596665429L141.70648123478628,47.232634414901185L143.68222029696554,49.55653397359724L145.65795935914474,54.27307976479219L147.633698421324,46.56057110721278L149.6094374835032,41.37761542192512L151.58517654568246,46.49275104404894L153.5609156078617,45.256599262946104L155.53665467004092,47.05559243746904L157.51239373222015,44.960192996493085L159.48813279439938,51.22267488626437L161.4638718565786,44.8649748040294L163.43961091875784,39.87436790897109L165.41534998093707,40.73828698290018L167.3910890431163,45.42181179421023L169.36682810529553,40.77095104067636L171.34256716747475,40.38464392665777L173.31830622965398,38.9363595423854L175.2940452918332,38.49272008575435L177.26978435401244,42.12199358621163L179.24552341619167,43.30716934234558L181.2212624783709,38.296037535341995L183.19700154055013,40.32358640265107L185.17274060272936,41.25683918764409L187.14847966490856,42.93986233406938L189.12421872708782,36.58594973817252L191.09995778926702,40.693278600226826L193.07569685144628,42.96773794917546L195.05143591362548,38.74155771464323L197.02717497580474,36.353534386288906L199.00291403798394,38.004777404854224L200.9786531001632,37.73700972933777L202.9543921623424,35.30472951624121L204.93013122452166,33.526632195175004L206.90587028670086,34.38535077358336L208.88160934888012,35.482105436790796L210.85734841105932,33.1967448125275L212.83308747323858,31.54175466442783L214.80882653541778,37.88079852447554L216.78456559759704,35.158531447040076L218.76030465977624,33.76958825577612L220.7360437219555,33.32172484948802L222.7117827841347,35.510690494771L224.68752184631396,34.66973539981165" style="fill: none;" fill="none"></path></g></g></g></g><g opacity="0.2"><g><g><g><path stroke="rgb(255, 112, 67)" stroke-width="2px" d="M31.06509375274946,184.25824069935896L33.040832814928685,168.25836239734588L35.01657187710792,170.2906956106581L36.99231093928715,165.9674135715064L38.96805000146638,142.9098750043059L40.94378906364561,163.2699706162913L42.91952812582483,160.7203374611416L44.89526718800406,155.32548590910287L46.87100625018329,142.3925750624684L48.84674531236252,147.41793647273508L50.82248437454175,152.7388831247411L52.79822343672098,145.57034833030892L54.77396249890021,130.34648865783495L56.74970156107944,135.1870706388241L58.72544062325867,128.12941037363672L60.7011796854379,138.58659296515418L62.67691874761713,124.5082077056L64.65265780979635,113.53369081385357L66.62839687197558,122.51284412149985L68.60413593415481,123.54747836356627L70.57987499633404,114.71613485598539L72.55561405851327,128.2033152736694L74.5313531206925,114.1249300141152L76.50709218287173,125.98623698947117L78.48283124505096,118.55905222412024L80.45857030723019,111.3535821588674L82.43430936940942,102.85482788062943L84.41004843158865,108.9148235329625L86.38578749376788,111.83394682988425L88.3615265559471,100.15738492541432L90.33726561812632,108.36055396191294L92.31300468030555,93.94957947301583L94.28874374248478,102.89176315145005L96.26448280466401,91.2152012469801L98.24022186684324,87.96348872071545L100.21596092902247,92.69326488924277L102.19169999120172,84.82265072369559L104.16743905338095,81.94046269759444L106.14317811556018,80.01900401352702L108.1189171777394,84.00973118172728L110.09465623991863,65.16463448282514L112.07039530209786,66.90134809600654L114.0461343642771,66.86437846679445L116.02187342645632,66.75353829594113L117.99761248863555,66.19926872489155L119.97335155081478,59.511098601476206L121.94909061299401,69.45098125115621L123.92482967517324,59.36328880141079L125.90056873735247,59.06770355967145L127.8763077995317,58.40255945937709L129.85204686171093,60.10233780173786L131.82778592389016,57.58963991740879L133.8035249860694,57.36792521731067L135.77926404824862,58.5503692594425L137.75500311042785,47.3172367551688L139.73074217260708,46.76296718411925L141.70648123478628,46.72599755490717L143.68222029696554,50.75369435231949L145.65795935914474,56.70281547540779L147.633698421324,42.58746058664149L149.6094374835032,38.707607947686036L151.58517654568246,49.12782090999144L153.5609156078617,44.6197937999537L155.53665467004092,47.9823464970717L157.51239373222015,43.88074479962665L159.48813279439938,54.44880192038893L161.4638718565786,41.58979597378716L163.43961091875784,37.30344920545609L165.41534998093707,41.18333620280303L167.3910890431163,47.834536697006286L169.36682810529553,38.37505307673459L171.34256716747475,40.18563723155723L173.31830622965398,38.19027364745709L175.2940452918332,38.2641785474898L177.26978435401244,43.99161932887144L179.24552341619167,43.91771442883873L181.2212624783709,35.71454539234012L183.19700154055013,41.368081273689036L185.17274060272936,41.73760577385257L187.14847966490856,43.806874257985406L189.12421872708782,33.312722037255845L191.09995778926702,42.80917528673961L193.07569685144628,44.139429128936854L195.05143591362548,36.5644345635205L197.02717497580474,35.12334055046993L199.00291403798394,38.85541774775145L200.9786531001632,37.59906880558692L202.9543921623424,34.05173667919143L204.93013122452166,32.61064266614086L206.90587028670086,34.827720950339106L208.88160934888012,36.047100263291554L210.85734841105932,32.01943782427069L212.83308747323858,30.689183982073445L214.80882653541778,41.14636657359094L216.78456559759704,33.75615143745207L218.76030465977624,33.054072066337106L220.7360437219555,33.09100733715773L222.7117827841347,36.63833946355321L224.68752184631396,34.23651610846893" style="fill: none;" fill="none"></path></g></g></g></g></g></g><g transform="translate(50, 177)" clip-path="url(#clip_1)"><clipPath id="clip_1"><rect width="280" height="23"></rect></clipPath><g><g><line x1="27.113615628391" y1="0" x2="27.113615628391" y2="5" style="visibility: inherit;" fill="rgb(0, 0, 0)" stroke="rgb(204, 204, 204)" stroke-width="1px"></line><line x1="66.62839687197558" y1="0" x2="66.62839687197558" y2="5" style="visibility: inherit;" fill="rgb(0, 0, 0)" stroke="rgb(204, 204, 204)" stroke-width="1px"></line><line x1="106.14317811556018" y1="0" x2="106.14317811556018" y2="5" style="visibility: inherit;" fill="rgb(0, 0, 0)" stroke="rgb(204, 204, 204)" stroke-width="1px"></line><line x1="145.65795935914474" y1="0" x2="145.65795935914474" y2="5" style="visibility: inherit;" fill="rgb(0, 0, 0)" stroke="rgb(204, 204, 204)" stroke-width="1px"></line><line x1="185.17274060272936" y1="0" x2="185.17274060272936" y2="5" style="visibility: inherit;" fill="rgb(0, 0, 0)" stroke="rgb(204, 204, 204)" stroke-width="1px"></line><line x1="224.68752184631396" y1="0" x2="224.68752184631396" y2="5" style="visibility: inherit;" fill="rgb(0, 0, 0)" stroke="rgb(204, 204, 204)" stroke-width="1px"></line><line x1="264.2023030898985" y1="0" x2="264.2023030898985" y2="5" style="visibility: inherit;" fill="rgb(0, 0, 0)" stroke="rgb(204, 204, 204)" stroke-width="1px"></line></g><g transform="translate(0, 8)"><text x="27.113615628391" y="0" dx="0em" dy="0.95em" style="text-anchor: middle; visibility: inherit; font-family: Roboto, sans-serif; font-size: 12px; font-weight: 200;" fill="rgb(33, 33, 33)" stroke="none" stroke-width="1px">0</text><text x="66.62839687197558" y="0" dx="0em" dy="0.95em" style="text-anchor: middle; visibility: inherit; font-family: Roboto, sans-serif; font-size: 12px; font-weight: 200;" fill="rgb(33, 33, 33)" stroke="none" stroke-width="1px">20</text><text x="106.14317811556018" y="0" dx="0em" dy="0.95em" style="text-anchor: middle; visibility: inherit; font-family: Roboto, sans-serif; font-size: 12px; font-weight: 200;" fill="rgb(33, 33, 33)" stroke="none" stroke-width="1px">40</text><text x="145.65795935914474" y="0" dx="0em" dy="0.95em" style="text-anchor: middle; visibility: inherit; font-family: Roboto, sans-serif; font-size: 12px; font-weight: 200;" fill="rgb(33, 33, 33)" stroke="none" stroke-width="1px">60</text><text x="185.17274060272936" y="0" dx="0em" dy="0.95em" style="text-anchor: middle; visibility: inherit; font-family: Roboto, sans-serif; font-size: 12px; font-weight: 200;" fill="rgb(33, 33, 33)" stroke="none" stroke-width="1px">80</text><text x="224.68752184631396" y="0" dx="0em" dy="0.95em" style="text-anchor: middle; visibility: inherit; font-family: Roboto, sans-serif; font-size: 12px; font-weight: 200;" fill="rgb(33, 33, 33)" stroke="none" stroke-width="1px">100</text><text x="264.2023030898985" y="0" dx="0em" dy="0.95em" style="text-anchor: middle; visibility: inherit; font-family: Roboto, sans-serif; font-size: 12px; font-weight: 200;" fill="rgb(33, 33, 33)" stroke="none" stroke-width="1px">120</text></g><line x1="0" y1="0" x2="280" y2="0" fill="rgb(0, 0, 0)" stroke="rgb(204, 204, 204)" stroke-width="1px"></line></g></g></g></g></svg>