<svg viewBox="0 0 330 200" xmlns="http://www.w3.org/2000/svg"><g><g><g><g><g><line x1="50" y1="176.51263077242723" x2="45" y2="176.51263077242723" style="visibility: inherit;" fill="rgb(0, 0, 0)" stroke="rgb(204, 204, 204)" stroke-width="1px"></line><line x1="50" y1="159.9809004233564" x2="45" y2="159.9809004233564" style="visibility: inherit;" fill="rgb(0, 0, 0)" stroke="rgb(204, 204, 204)" stroke-width="1px"></line><line x1="50" y1="143.44917007428552" x2="45" y2="143.44917007428552" style="visibility: inherit;" fill="rgb(0, 0, 0)" stroke="rgb(204, 204, 204)" stroke-width="1px"></line><line x1="50" y1="126.91743972521466" x2="45" y2="126.91743972521466" style="visibility: inherit;" fill="rgb(0, 0, 0)" stroke="rgb(204, 204, 204)" stroke-width="1px"></line><line x1="50" y1="110.3857093761438" x2="45" y2="110.3857093761438" style="visibility: inherit;" fill="rgb(0, 0, 0)" stroke="rgb(204, 204, 204)" stroke-width="1px"></line><line x1="50" y1="93.85397902707295" x2="45" y2="93.85397902707295" style="visibility: inherit;" fill="rgb(0, 0, 0)" stroke="rgb(204, 204, 204)" stroke-width="1px"></line><line x1="50" y1="77.32224867800205" x2="45" y2="77.32224867800205" style="visibility: inherit;" fill="rgb(0, 0, 0)" stroke="rgb(204, 204, 204)" stroke-width="1px"></line><line x1="50" y1="60.79051832893121" x2="45" y2="60.79051832893121" style="visibility: inherit;" fill="rgb(0, 0, 0)" stroke="rgb(204, 204, 204)" stroke-width="1px"></line><line x1="50" y1="44.258787979860344" x2="45" y2="44.258787979860344" style="visibility: inherit;" fill="rgb(0, 0, 0)" stroke="rgb(204, 204, 204)" stroke-width="1px"></line><line x1="50" y1="27.72705763078948" x2="45" y2="27.72705763078948" style="visibility: inherit;" fill="rgb(0, 0, 0)" stroke="rgb(204, 204, 204)" stroke-width="1px"></line><line x1="50" y1="11.195327281718809" x2="45" y2="11.195327281718809" style="visibility: inherit;" fill="rgb(0, 0, 0)" stroke="rgb(204, 204, 204)" stroke-width="1px"></line></g><g transform="translate(40, 0)"><text x="0" y="176.51263077242723" dx="0em" dy="0.3em" style="text-anchor: end; visibility: hidden; font-family: Roboto, sans-serif; font-size: 12px; font-weight: 200;" fill="rgb(33, 33, 33)" stroke="none" stroke-width="1px">0.59</text><text x="0" y="159.9809004233564" dx="0em" dy="0.3em" style="text-anchor: end; visibility: inherit; font-family: Roboto, sans-serif; font-size: 12px; font-weight: 200;" fill="rgb(33, 33, 33)" stroke="none" stroke-width="1px">0.6</text><text x="0" y="143.44917007428552" dx="0em" dy="0.3em" style="text-anchor: end; visibility: hidden; font-family: Roboto, sans-serif; font-size: 12px; font-weight: 200;" fill="rgb(33, 33, 33)" stroke="none" stroke-width="1px">0.61</text><text x="0" y="126.91743972521466" dx="0em" dy="0.3em" style="text-anchor: end; visibility: inherit; font-family: Roboto, sans-serif; font-size: 12px; font-weight: 200;" fill="rgb(33, 33, 33)" stroke="none" stroke-width="1px">0.62</text><text x="0" y="110.3857093761438" dx="0em" dy="0.3em" style="text-anchor: end; visibility: hidden; font-family: Roboto, sans-serif; font-size: 12px; font-weight: 200;" fill="rgb(33, 33, 33)" stroke="none" stroke-width="1px">0.63</text><text x="0" y="93.85397902707295" dx="0em" dy="0.3em" style="text-anchor: end; visibility: inherit; font-family: Roboto, sans-serif; font-size: 12px; font-weight: 200;" fill="rgb(33, 33, 33)" stroke="none" stroke-width="1px">0.64</text><text x="0" y="77.32224867800205" dx="0em" dy="0.3em" style="text-anchor: end; visibility: hidden; font-family: Roboto, sans-serif; font-size: 12px; font-weight: 200;" fill="rgb(33, 33, 33)" stroke="none" stroke-width="1px">0.65</text><text x="0" y="60.79051832893121" dx="0em" dy="0.3em" style="text-anchor: end; visibility: inherit; font-family: Roboto, sans-serif; font-size: 12px; font-weight: 200;" fill="rgb(33, 33, 33)" stroke="none" stroke-width="1px">0.66</text><text x="0" y="44.258787979860344" dx="0em" dy="0.3em" style="text-anchor: end; visibility: hidden; font-family: Roboto, sans-serif; font-size: 12px; font-weight: 200;" fill="rgb(33, 33, 33)" stroke="none" stroke-width="1px">0.67</text><text x="0" y="27.72705763078948" dx="0em" dy="0.3em" style="text-anchor: end; visibility: inherit; font-family: Roboto, sans-serif; font-size: 12px; font-weight: 200;" fill="rgb(33, 33, 33)" stroke="none" stroke-width="1px">0.68</text><text x="0" y="11.195327281718809" dx="0em" dy="0.3em" style="text-anchor: end; visibility: hidden; font-family: Roboto, sans-serif; font-size: 12px; font-weight: 200;" fill="rgb(33, 33, 33)" stroke="none" stroke-width="1px">0.69</text></g><line x1="50" y1="0" x2="50" y2="177" fill="rgb(0, 0, 0)" stroke="rgb(204, 204, 204)" stroke-width="1px"></line></g></g><g transform="translate(50, 0)" clip-path="url(#clip_0)"><clipPath id="clip_0"><rect width="280" height="177"></rect></clipPath><g><g><g><line x1="8.705887278110682" y1="0" x2="8.705887278110682" y2="177" fill="rgb(0, 0, 0)" stroke="rgb(66, 66, 66)" stroke-width="1px" opacity="0.25"></line><line x1="37.037101247328444" y1="0" x2="37.037101247328444" y2="177" fill="rgb(0, 0, 0)" stroke="rgb(66, 66, 66)" stroke-width="1px" opacity="0.25"></line><line x1="65.36831521654621" y1="0" x2="65.36831521654621" y2="177" fill="rgb(0, 0, 0)" stroke="rgb(66, 66, 66)" stroke-width="1px" opacity="0.25"></line><line x1="93.69952918576395" y1="0" x2="93.69952918576395" y2="177" fill="rgb(0, 0, 0)" stroke="rgb(66, 66, 66)" stroke-width="1px" opacity="0.25"></line><line x1="122.03074315498172" y1="0" x2="122.03074315498172" y2="177" fill="rgb(0, 0, 0)" stroke="rgb(66, 66, 66)" stroke-width="1px" opacity="0.25"></line><line x1="150.36195712419948" y1="0" x2="150.36195712419948" y2="177" fill="rgb(0, 0, 0)" stroke="rgb(66, 66, 66)" stroke-width="1px" opacity="0.25"></line><line x1="178.69317109341725" y1="0" x2="178.69317109341725" y2="177" fill="rgb(0, 0, 0)" stroke="rgb(66, 66, 66)" stroke-width="1px" opacity="0.25"></line><line x1="207.02438506263502" y1="0" x2="207.02438506263502" y2="177" fill="rgb(0, 0, 0)" stroke="rgb(66, 66, 66)" stroke-width="1px" opacity="0.25"></line><line x1="235.3555990318528" y1="0" x2="235.3555990318528" y2="177" fill="rgb(0, 0, 0)" stroke="rgb(66, 66, 66)" stroke-width="1px" opacity="0.25"></line><line x1="263.68681300107056" y1="0" x2="263.68681300107056" y2="177" fill="rgb(0, 0, 0)" stroke="rgb(66, 66, 66)" stroke-width="1px" opacity="0.25"></line></g><g><line x1="0" y1="176.51263077242723" x2="280" y2="176.51263077242723" fill="rgb(0, 0, 0)" stroke="rgb(66, 66, 66)" stroke-width="1px" opacity="0.25"></line><line x1="0" y1="159.9809004233564" x2="280" y2="159.9809004233564" fill="rgb(0, 0, 0)" stroke="rgb(66, 66, 66)" stroke-width="1px" opacity="0.25"></line><line x1="0" y1="143.44917007428552" x2="280" y2="143.44917007428552" fill="rgb(0, 0, 0)" stroke="rgb(66, 66, 66)" stroke-width="1px" opacity="0.25"></line><line x1="0" y1="126.91743972521466" x2="280" y2="126.91743972521466" fill="rgb(0, 0, 0)" stroke="rgb(66, 66, 66)" stroke-width="1px" opacity="0.25"></line><line x1="0" y1="110.3857093761438" x2="280" y2="110.3857093761438" fill="rgb(0, 0, 0)" stroke="rgb(66, 66, 66)" stroke-width="1px" opacity="0.25"></line><line x1="0" y1="93.85397902707295" x2="280" y2="93.85397902707295" fill="rgb(0, 0, 0)" stroke="rgb(66, 66, 66)" stroke-width="1px" opacity="0.25"></line><line x1="0" y1="77.32224867800205" x2="280" y2="77.32224867800205" fill="rgb(0, 0, 0)" stroke="rgb(66, 66, 66)" stroke-width="1px" opacity="0.25"></line><line x1="0" y1="60.79051832893121" x2="280" y2="60.79051832893121" fill="rgb(0, 0, 0)" stroke="rgb(66, 66, 66)" stroke-width="1px" opacity="0.25"></line><line x1="0" y1="44.258787979860344" x2="280" y2="44.258787979860344" fill="rgb(0, 0, 0)" stroke="rgb(66, 66, 66)" stroke-width="1px" opacity="0.25"></line><line x1="0" y1="27.72705763078948" x2="280" y2="27.72705763078948" fill="rgb(0, 0, 0)" stroke="rgb(66, 66, 66)" stroke-width="1px" opacity="0.25"></line><line x1="0" y1="11.195327281718809" x2="280" y2="11.195327281718809" fill="rgb(0, 0, 0)" stroke="rgb(66, 66, 66)" stroke-width="1px" opacity="0.25"></line></g></g></g><g><g><line x1="0" y1="1151.8847213676072" x2="280" y2="1151.8847213676072" fill="rgb(0, 0, 0)" stroke="rgb(153, 153, 153)" stroke-width="1.5px"></line></g></g><g><g><line x1="37.037101247328444" y1="0" x2="37.037101247328444" y2="177" fill="rgb(0, 0, 0)" stroke="rgb(153, 153, 153)" stroke-width="1.5px"></line></g></g><g><g><g><g><g><path stroke="rgb(255, 112, 67)" stroke-width="2px" d="M38.453661945789335,173.22745750007576L39.87022264425022,136.79939105122037L41.28678334271111,102.12851712846225L42.703344041172,113.22826749531572L44.119904739632894,112.22518026928135L45.53646543809377,113.45425332208816L46.95302613655466,86.37445250878919L48.369586835015554,88.68445244050525L49.78614753347644,105.6748882305812L51.20270823193733,78.35753585747308L52.61926893039822,94.874197518631L54.035829628859105,119.35940064904418L55.452390327319996,106.72453849597464L56.86895102578088,104.75393154445206L58.285511724241765,108.19515920483101L59.702072422702656,105.50993881349734L61.11863312116355,96.86150910834093L62.53519381962443,90.10483856540954L63.95175451808532,81.6001761644046L65.36831521654621,83.2377945466338L66.7848759150071,81.88889562447947L68.20143661346798,85.99674407001149L69.61799731192887,91.04720202189374L71.03455801038976,75.93485007878516L72.45111870885066,84.28943023089468L73.86767940731154,79.46785923590681L75.28424010577243,76.57492190273972L76.70080080423332,88.53085698443562L78.11736150269421,94.51751753625646L79.5339222011551,82.51034661860417L80.95048289961599,69.71069244155034L82.36704359807688,81.06355971749028L83.78360429653776,87.87527950479068L85.20016499499863,118.20116173742814L86.61672569345953,97.0172494161716L88.03328639192041,98.25289333045872L89.44984709038131,108.10794757291549L90.8664077888422,100.88035000470339L92.28296848730308,103.11410650852005L93.69952918576395,93.85708320031L95.11608988422485,76.64588795032067L96.53265058268573,80.51950491233934L97.94921128114663,92.97463677234667L99.36577197960752,84.17034446625982L100.7823326780684,86.98406426520818L102.1988933765293,91.55477319889921L103.61545407499018,87.26060744837041L105.03201477345107,90.70336585844781L106.44857547191197,96.62642097390668L107.86513617037285,90.38837716888983L109.28169686883373,93.85166469233752L110.69825756729463,87.23991405247077L112.11481826575552,83.27286366856303L113.5313789642164,68.59977455168192L114.9479396626773,68.6976559960553L116.36450036113817,70.45192714134225L117.78106105959905,64.46789871821453L119.19762175805995,65.37071994192682L120.61418245652084,67.18408909250928L122.03074315498172,65.72875775014842L123.44730385344262,64.51647413782906L124.8638645519035,46.91826516563399L126.28042525036439,55.688750364426284L127.69698594882529,61.7988126230328L129.11354664728617,48.297297186835074L130.53010734574707,40.19638792511647L131.94666804420794,28.977460286309487L133.36322874266884,23.305847188226526L134.77978944112974,26.473154927589878L136.1963501395906,27.525768431876493L137.61291083805148,27.733470672141237L139.02947153651237,30.189472503140124L140.44603223497327,28.060016698544175L141.86259293343417,21.271732273342057L143.27915363189504,22.70937256066544L144.69571433035594,20.816670969195318L146.11227502881684,24.343810987993415L147.52883572727774,22.857038096077027L148.9453964257386,21.753041429773713L150.36195712419948,19.818967013636247L151.77851782266038,18.446589432800096L153.19507852112125,13.80813363523296L154.61163921958217,20.35066093348635L156.02819991804304,17.705862299508684L157.44476061650394,16.330916050275853L158.8613213149648,19.575320716016034L160.2778820134257,14.27343947400879L161.69444271188658,16.1366061591646L163.1110034103475,18.907677628576426L164.52756410880838,23.19841498362224L165.94412480726928,30.605219895856102L167.36068550573015,28.309465134173863L168.77724620419104,24.727783666073258L170.19380690265191,29.31861249423552L171.61036760111278,28.470052887937474L173.0269282995737,30.589011597557295L174.44348899803458,34.57330176684904L175.86004969649548,41.88101942303519L177.27661039495635,39.94967817003164L178.69317109341725,43.02976852960255" style="fill: none;" fill="none"></path></g></g></g></g><g opacity="0.2"><g><g><g><path stroke="rgb(255, 112, 67)" stroke-width="2px" d="M38.453661945789335,173.22745750007576L39.87022264425022,114.9425511819071L41.28678334271111,68.84447816261464L42.703344041172,126.28157392673545L44.119904739632894,110.91554958697128L45.53646543809377,115.15450382041907L46.95302613655466,47.64990406895872L48.369586835015554,92.05245451694698L49.78614753347644,130.7324807986952L51.20270823193733,37.79445125692263L52.61926893039822,119.49938510472708L54.035829628859105,155.95395795049544L55.452390327319996,87.81350028349918L56.86895102578088,101.80188174133133L58.285511724241765,113.35295566146314L59.702072422702656,101.48400205195914L61.11863312116355,83.8925242762151L62.53519381962443,79.97154826893102L63.95175451808532,68.84447816261464L65.36831521654621,85.69407243517105L66.7848759150071,79.86562121807079L68.20143661346798,92.15838156780721L69.61799731192887,98.62278923723485L71.03455801038976,53.266501184338516L72.45111870885066,96.82124107827892L73.86767940731154,72.23552330522307L75.28424010577243,72.23552330522307L76.70080080423332,106.46474125180303L78.11736150269421,103.49750284942702L79.5339222011551,64.49959687830662L80.95048289961599,50.51121542047448L82.36704359807688,98.0928583725592L83.78360429653776,98.0928583725592L85.20016499499863,163.68998291420337L86.61672569345953,65.24138184470276L88.03328639192041,100.1063591700271L89.44984709038131,122.89052878412701L90.8664077888422,90.03895371947905L92.28296848730308,106.46474125180303L93.69952918576395,79.97154826893102L95.11608988422485,50.82909510984668L96.53265058268573,86.32993035070693L97.94921128114663,111.65733455336742L99.36577197960752,70.96390601094278L100.7823326780684,91.20464396289911L102.1988933765293,98.41083659872291L103.61545407499018,80.81935882297887L105.03201477345107,95.86750347337083L106.44857547191197,105.51100364689495L107.86513617037285,81.03131146149083L109.28169686883373,99.04659597746729L110.69825756729463,77.32228809271871L112.11481826575552,77.32228809271871L113.5313789642164,46.590140876398905L114.9479396626773,68.84447816261464L116.36450036113817,73.08333385927092L117.78106105959905,55.49185608352689L119.19762175805995,66.724951777495L120.61418245652084,69.90414281838297L122.03074315498172,63.545760736607036L123.44730385344262,62.69804871935068L124.8638645519035,20.520951707342295L126.28042525036439,68.84447816261464L127.69698594882529,70.96390601094278L129.11354664728617,28.045024032538283L130.53010734574707,28.045024032538283L131.94666804420794,12.149068828098464L133.36322874266884,14.79842754110227L134.77978944112974,31.224116536634742L136.1963501395906,29.104688688306595L137.61291083805148,28.045024032538283L139.02947153651237,33.87347524963855L140.44603223497327,24.86583299165032L141.86259293343417,11.089305635538649L143.27915363189504,24.86583299165032L144.69571433035594,17.977618581990235L146.11227502881684,29.634521016190753L147.52883572727774,20.62687875820254L148.9453964257386,20.097046430318365L150.36195712419948,16.9178553894304L151.77851782266038,16.388023061546242L153.19507852112125,6.8504499388823525L154.61163921958217,30.164451880866412L156.02819991804304,13.738664348542436L157.44476061650394,14.268496676426613L158.8613213149648,24.441927714626388L160.2778820134257,6.3206176109981955L161.69444271188658,18.93135618689832L163.1110034103475,23.064284832694373L164.52756410880838,29.634521016190753L165.94412480726928,41.715427264206724L167.36068550573015,24.86583299165032L168.77724620419104,19.35526146392225L170.19380690265191,36.204855736478656L171.61036760111278,27.197213478490422L173.0269282995737,33.767449661986824L174.44348899803458,40.54973702078666L175.86004969649548,52.84259590731458L177.27661039495635,37.05266629052652L178.69317109341725,47.64990406895872" style="fill: none;" fill="none"></path></g></g></g></g></g></g><g transform="translate(50, 177)" clip-path="url(#clip_1)"><clipPath id="clip_1"><rect width="280" height="23"></rect></clipPath><g><g><line x1="8.705887278110682" y1="0" x2="8.705887278110682" y2="5" style="visibility: inherit;" fill="rgb(0, 0, 0)" stroke="rgb(204, 204, 204)" stroke-width="1px"></line><line x1="37.037101247328444" y1="0" x2="37.037101247328444" y2="5" style="visibility: inherit;" fill="rgb(0, 0, 0)" stroke="rgb(204, 204, 204)" stroke-width="1px"></line><line x1="65.36831521654621" y1="0" x2="65.36831521654621" y2="5" style="visibility: inherit;" fill="rgb(0, 0, 0)" stroke="rgb(204, 204, 204)" stroke-width="1px"></line><line x1="93.69952918576395" y1="0" x2="93.69952918576395" y2="5" style="visibility: inherit;" fill="rgb(0, 0, 0)" stroke="rgb(204, 204, 204)" stroke-width="1px"></line><line x1="122.03074315498172" y1="0" x2="122.03074315498172" y2="5" style="visibility: inherit;" fill="rgb(0, 0, 0)" stroke="rgb(204, 204, 204)" stroke-width="1px"></line><line x1="150.36195712419948" y1="0" x2="150.36195712419948" y2="5" style="visibility: inherit;" fill="rgb(0, 0, 0)" stroke="rgb(204, 204, 204)" stroke-width="1px"></line><line x1="178.69317109341725" y1="0" x2="178.69317109341725" y2="5" style="visibility: inherit;" fill="rgb(0, 0, 0)" stroke="rgb(204, 204, 204)" stroke-width="1px"></line><line x1="207.02438506263502" y1="0" x2="207.02438506263502" y2="5" style="visibility: inherit;" fill="rgb(0, 0, 0)" stroke="rgb(204, 204, 204)" stroke-width="1px"></line><line x1="235.3555990318528" y1="0" x2="235.3555990318528" y2="5" style="visibility: inherit;" fill="rgb(0, 0, 0)" stroke="rgb(204, 204, 204)" stroke-width="1px"></line><line x1="263.68681300107056" y1="0" x2="263.68681300107056" y2="5" style="visibility: inherit;" fill="rgb(0, 0, 0)" stroke="rgb(204, 204, 204)" stroke-width="1px"></line></g><g transform="translate(0, 8)"><text x="8.705887278110682" y="0" dx="0em" dy="0.95em" style="text-anchor: middle; visibility: inherit; font-family: Roboto, sans-serif; font-size: 12px; font-weight: 200;" fill="rgb(33, 33, 33)" stroke="none" stroke-width="1px">-20</text><text x="37.037101247328444" y="0" dx="0em" dy="0.95em" style="text-anchor: middle; visibility: inherit; font-family: Roboto, sans-serif; font-size: 12px; font-weight: 200;" fill="rgb(33, 33, 33)" stroke="none" stroke-width="1px">0</text><text x="65.36831521654621" y="0" dx="0em" dy="0.95em" style="text-anchor: middle; visibility: inherit; font-family: Roboto, sans-serif; font-size: 12px; font-weight: 200;" fill="rgb(33, 33, 33)" stroke="none" stroke-width="1px">20</text><text x="93.69952918576395" y="0" dx="0em" dy="0.95em" style="text-anchor: middle; visibility: inherit; font-family: Roboto, sans-serif; font-size: 12px; font-weight: 200;" fill="rgb(33, 33, 33)" stroke="none" stroke-width="1px">40</text><text x="122.03074315498172" y="0" dx="0em" dy="0.95em" style="text-anchor: middle; visibility: inherit; font-family: Roboto, sans-serif; font-size: 12px; font-weight: 200;" fill="rgb(33, 33, 33)" stroke="none" stroke-width="1px">60</text><text x="150.36195712419948" y="0" dx="0em" dy="0.95em" style="text-anchor: middle; visibility: inherit; font-family: Roboto, sans-serif; font-size: 12px; font-weight: 200;" fill="rgb(33, 33, 33)" stroke="none" stroke-width="1px">80</text><text x="178.69317109341725" y="0" dx="0em" dy="0.95em" style="text-anchor: middle; visibility: inherit; font-family: Roboto, sans-serif; font-size: 12px; font-weight: 200;" fill="rgb(33, 33, 33)" stroke="none" stroke-width="1px">100</text><text x="207.02438506263502" y="0" dx="0em" dy="0.95em" style="text-anchor: middle; visibility: inherit; font-family: Roboto, sans-serif; font-size: 12px; font-weight: 200;" fill="rgb(33, 33, 33)" stroke="none" stroke-width="1px">120</text><text x="235.3555990318528" y="0" dx="0em" dy="0.95em" style="text-anchor: middle; visibility: inherit; font-family: Roboto, sans-serif; font-size: 12px; font-weight: 200;" fill="rgb(33, 33, 33)" stroke="none" stroke-width="1px">140</text><text x="263.68681300107056" y="0" dx="0em" dy="0.95em" style="text-anchor: middle; visibility: inherit; font-family: Roboto, sans-serif; font-size: 12px; font-weight: 200;" fill="rgb(33, 33, 33)" stroke="none" stroke-width="1px">160</text></g><line x1="0" y1="0" x2="280" y2="0" fill="rgb(0, 0, 0)" stroke="rgb(204, 204, 204)" stroke-width="1px"></line></g></g></g></g></svg>